<mxfile host="app.diagrams.net" modified="2024-05-24T20:28:23.851Z" agent="Mozilla/5.0 (Windows NT 10.0; Win64; x64) AppleWebKit/537.36 (KHTML, like Gecko) Chrome/125.0.0.0 Safari/537.36" etag="wILWQ2r1tYlkhpp1huEq" version="24.4.6" type="device" pages="2">
  <diagram name="SW Architecture" id="GhCXKAV-Ies7p6CzhLlA">
    <mxGraphModel dx="4118" dy="2226" grid="1" gridSize="10" guides="1" tooltips="1" connect="1" arrows="1" fold="1" page="1" pageScale="1" pageWidth="827" pageHeight="1169" math="0" shadow="0">
      <root>
        <mxCell id="0" />
        <mxCell id="1" parent="0" />
        <mxCell id="lsXI1EpWRAEbJtsAGLBk-13" value="" style="rounded=0;whiteSpace=wrap;html=1;" parent="1" vertex="1">
          <mxGeometry x="-540" y="290" width="420" height="460" as="geometry" />
        </mxCell>
        <mxCell id="hMQYiJFLPu_6DiaCPc6n-1" value="&lt;table style=&quot;width: 833pt; font-size: 17px;&quot; width=&quot;1110&quot; cellspacing=&quot;0&quot; cellpadding=&quot;0&quot; border=&quot;0&quot;&gt;&lt;tbody&gt;&lt;tr style=&quot;height:15.0pt&quot; height=&quot;20&quot;&gt;&lt;td style=&quot;height: 15pt;&quot; width=&quot;1110&quot; class=&quot;xl65&quot; height=&quot;20&quot; colspan=&quot;2&quot;&gt;&lt;/td&gt;&lt;/tr&gt;&lt;/tbody&gt;&lt;/table&gt;&lt;font style=&quot;font-size: 17px;&quot;&gt;Application Module&lt;/font&gt;" style="rounded=1;whiteSpace=wrap;html=1;align=center;" parent="1" vertex="1">
          <mxGeometry x="274" y="290" width="190" height="60" as="geometry" />
        </mxCell>
        <mxCell id="hMQYiJFLPu_6DiaCPc6n-2" value="&lt;table style=&quot;border-collapse:&lt;br/&gt; collapse;width:833pt&quot; width=&quot;1110&quot; cellspacing=&quot;0&quot; cellpadding=&quot;0&quot; border=&quot;0&quot;&gt;&lt;tbody&gt;&lt;tr style=&quot;height:15.0pt&quot; height=&quot;20&quot;&gt;&lt;td style=&quot;height:15.0pt;&lt;br/&gt;  width:833pt&quot; width=&quot;1110&quot; class=&quot;xl65&quot; height=&quot;20&quot; colspan=&quot;2&quot;&gt;&lt;/td&gt;&lt;/tr&gt;&lt;/tbody&gt;&lt;/table&gt;LedDrv Module" style="rounded=1;whiteSpace=wrap;html=1;" parent="1" vertex="1">
          <mxGeometry x="44" y="470" width="190" height="60" as="geometry" />
        </mxCell>
        <mxCell id="hMQYiJFLPu_6DiaCPc6n-3" value="&lt;table style=&quot;border-collapse:&lt;br/&gt; collapse;width:833pt&quot; width=&quot;1110&quot; cellspacing=&quot;0&quot; cellpadding=&quot;0&quot; border=&quot;0&quot;&gt;&lt;tbody&gt;&lt;tr style=&quot;height:15.0pt&quot; height=&quot;20&quot;&gt;&lt;td style=&quot;height:15.0pt;&lt;br/&gt;  width:833pt&quot; width=&quot;1110&quot; class=&quot;xl65&quot; height=&quot;20&quot; colspan=&quot;2&quot;&gt;&lt;/td&gt;&lt;/tr&gt;&lt;/tbody&gt;&lt;/table&gt;&lt;span style=&quot;background-color: initial;&quot;&gt;BtnDrv&lt;/span&gt;&lt;span style=&quot;background-color: initial;&quot;&gt;&amp;nbsp;Module&lt;/span&gt;" style="rounded=1;whiteSpace=wrap;html=1;" parent="1" vertex="1">
          <mxGeometry x="274" y="470" width="190" height="60" as="geometry" />
        </mxCell>
        <mxCell id="hMQYiJFLPu_6DiaCPc6n-4" value="&lt;table style=&quot;border-collapse:&lt;br/&gt; collapse;width:833pt&quot; width=&quot;1110&quot; cellspacing=&quot;0&quot; cellpadding=&quot;0&quot; border=&quot;0&quot;&gt;&lt;tbody&gt;&lt;tr style=&quot;height:15.0pt&quot; height=&quot;20&quot;&gt;&lt;td style=&quot;height:15.0pt;&lt;br/&gt;  width:833pt&quot; width=&quot;1110&quot; class=&quot;xl65&quot; height=&quot;20&quot; colspan=&quot;2&quot;&gt;&lt;/td&gt;&lt;/tr&gt;&lt;/tbody&gt;&lt;/table&gt;&lt;span style=&quot;background-color: initial;&quot;&gt;CySecDrv Module&lt;/span&gt;" style="rounded=1;whiteSpace=wrap;html=1;" parent="1" vertex="1">
          <mxGeometry x="504" y="470" width="190" height="60" as="geometry" />
        </mxCell>
        <mxCell id="hMQYiJFLPu_6DiaCPc6n-5" value="&lt;br&gt;uC (HW Layer)" style="rounded=1;whiteSpace=wrap;html=1;" parent="1" vertex="1">
          <mxGeometry x="44" y="585" width="650" height="60" as="geometry" />
        </mxCell>
        <mxCell id="hMQYiJFLPu_6DiaCPc6n-7" value="OS" style="rounded=1;whiteSpace=wrap;html=1;" parent="1" vertex="1">
          <mxGeometry x="724" y="290" width="60" height="360" as="geometry" />
        </mxCell>
        <mxCell id="hMQYiJFLPu_6DiaCPc6n-11" value="" style="endArrow=none;html=1;rounded=0;entryX=0.5;entryY=1;entryDx=0;entryDy=0;exitX=0.146;exitY=0.033;exitDx=0;exitDy=0;exitPerimeter=0;" parent="1" source="hMQYiJFLPu_6DiaCPc6n-5" target="hMQYiJFLPu_6DiaCPc6n-2" edge="1">
          <mxGeometry width="50" height="50" relative="1" as="geometry">
            <mxPoint x="-66" y="615" as="sourcePoint" />
            <mxPoint x="-16" y="565" as="targetPoint" />
          </mxGeometry>
        </mxCell>
        <mxCell id="hMQYiJFLPu_6DiaCPc6n-12" value="" style="endArrow=none;html=1;rounded=0;entryX=0.5;entryY=1;entryDx=0;entryDy=0;exitX=0.5;exitY=0;exitDx=0;exitDy=0;" parent="1" source="hMQYiJFLPu_6DiaCPc6n-3" target="hMQYiJFLPu_6DiaCPc6n-1" edge="1">
          <mxGeometry width="50" height="50" relative="1" as="geometry">
            <mxPoint x="334" y="440" as="sourcePoint" />
            <mxPoint x="384" y="390" as="targetPoint" />
          </mxGeometry>
        </mxCell>
        <mxCell id="hMQYiJFLPu_6DiaCPc6n-13" value="" style="endArrow=none;html=1;rounded=0;entryX=0.5;entryY=1;entryDx=0;entryDy=0;exitX=0.5;exitY=0;exitDx=0;exitDy=0;" parent="1" source="hMQYiJFLPu_6DiaCPc6n-2" target="hMQYiJFLPu_6DiaCPc6n-1" edge="1">
          <mxGeometry width="50" height="50" relative="1" as="geometry">
            <mxPoint x="334" y="440" as="sourcePoint" />
            <mxPoint x="384" y="390" as="targetPoint" />
          </mxGeometry>
        </mxCell>
        <mxCell id="hMQYiJFLPu_6DiaCPc6n-16" value="" style="endArrow=none;html=1;rounded=0;exitX=0.5;exitY=0;exitDx=0;exitDy=0;" parent="1" source="hMQYiJFLPu_6DiaCPc6n-4" edge="1">
          <mxGeometry width="50" height="50" relative="1" as="geometry">
            <mxPoint x="344" y="450" as="sourcePoint" />
            <mxPoint x="364" y="350" as="targetPoint" />
          </mxGeometry>
        </mxCell>
        <mxCell id="hMQYiJFLPu_6DiaCPc6n-17" value="" style="endArrow=none;html=1;rounded=0;entryX=0.5;entryY=1;entryDx=0;entryDy=0;exitX=0.5;exitY=0;exitDx=0;exitDy=0;" parent="1" source="hMQYiJFLPu_6DiaCPc6n-5" target="hMQYiJFLPu_6DiaCPc6n-3" edge="1">
          <mxGeometry width="50" height="50" relative="1" as="geometry">
            <mxPoint x="149" y="597" as="sourcePoint" />
            <mxPoint x="149" y="540" as="targetPoint" />
          </mxGeometry>
        </mxCell>
        <mxCell id="hMQYiJFLPu_6DiaCPc6n-18" value="" style="endArrow=none;html=1;rounded=0;entryX=0.5;entryY=1;entryDx=0;entryDy=0;" parent="1" target="hMQYiJFLPu_6DiaCPc6n-4" edge="1">
          <mxGeometry width="50" height="50" relative="1" as="geometry">
            <mxPoint x="599" y="590" as="sourcePoint" />
            <mxPoint x="159" y="550" as="targetPoint" />
          </mxGeometry>
        </mxCell>
        <mxCell id="lsXI1EpWRAEbJtsAGLBk-7" value="&lt;table style=&quot;width: 833pt; font-size: 17px;&quot; width=&quot;1110&quot; cellspacing=&quot;0&quot; cellpadding=&quot;0&quot; border=&quot;0&quot;&gt;&lt;tbody&gt;&lt;tr style=&quot;height:15.0pt&quot; height=&quot;20&quot;&gt;&lt;td style=&quot;height: 15pt;&quot; width=&quot;1110&quot; class=&quot;xl65&quot; height=&quot;20&quot; colspan=&quot;2&quot;&gt;&lt;/td&gt;&lt;/tr&gt;&lt;/tbody&gt;&lt;/table&gt;&lt;font style=&quot;font-size: 17px;&quot;&gt;Application Module&lt;/font&gt;" style="rounded=1;whiteSpace=wrap;html=1;align=center;" parent="1" vertex="1">
          <mxGeometry x="-413" y="350" width="190" height="60" as="geometry" />
        </mxCell>
        <mxCell id="lsXI1EpWRAEbJtsAGLBk-8" value="&lt;table style=&quot;border-collapse:&lt;br/&gt; collapse;width:833pt&quot; width=&quot;1110&quot; cellspacing=&quot;0&quot; cellpadding=&quot;0&quot; border=&quot;0&quot;&gt;&lt;tbody&gt;&lt;tr style=&quot;height:15.0pt&quot; height=&quot;20&quot;&gt;&lt;td style=&quot;height:15.0pt;&lt;br/&gt;  width:833pt&quot; width=&quot;1110&quot; class=&quot;xl65&quot; height=&quot;20&quot; colspan=&quot;2&quot;&gt;&lt;/td&gt;&lt;/tr&gt;&lt;/tbody&gt;&lt;/table&gt;&lt;span style=&quot;background-color: initial;&quot;&gt;BtnDrv&lt;/span&gt;&lt;span style=&quot;background-color: initial;&quot;&gt;&amp;nbsp;Module&lt;/span&gt;" style="rounded=1;whiteSpace=wrap;html=1;" parent="1" vertex="1">
          <mxGeometry x="-413" y="460" width="190" height="60" as="geometry" />
        </mxCell>
        <mxCell id="lsXI1EpWRAEbJtsAGLBk-9" value="&lt;br&gt;uC (HW Layer)" style="rounded=1;whiteSpace=wrap;html=1;" parent="1" vertex="1">
          <mxGeometry x="-413" y="575" width="190" height="60" as="geometry" />
        </mxCell>
        <mxCell id="lsXI1EpWRAEbJtsAGLBk-10" value="" style="endArrow=none;html=1;rounded=0;entryX=0.5;entryY=1;entryDx=0;entryDy=0;exitX=0.5;exitY=0;exitDx=0;exitDy=0;" parent="1" source="lsXI1EpWRAEbJtsAGLBk-8" target="lsXI1EpWRAEbJtsAGLBk-7" edge="1">
          <mxGeometry width="50" height="50" relative="1" as="geometry">
            <mxPoint x="-353" y="430" as="sourcePoint" />
            <mxPoint x="-303" y="380" as="targetPoint" />
          </mxGeometry>
        </mxCell>
        <mxCell id="lsXI1EpWRAEbJtsAGLBk-11" value="" style="endArrow=none;html=1;rounded=0;entryX=0.5;entryY=1;entryDx=0;entryDy=0;exitX=0.5;exitY=0;exitDx=0;exitDy=0;" parent="1" source="lsXI1EpWRAEbJtsAGLBk-9" target="lsXI1EpWRAEbJtsAGLBk-8" edge="1">
          <mxGeometry width="50" height="50" relative="1" as="geometry">
            <mxPoint x="-538" y="587" as="sourcePoint" />
            <mxPoint x="-538" y="530" as="targetPoint" />
          </mxGeometry>
        </mxCell>
        <mxCell id="lsXI1EpWRAEbJtsAGLBk-14" value="" style="rounded=0;whiteSpace=wrap;html=1;" parent="1" vertex="1">
          <mxGeometry x="861" y="270" width="760" height="460" as="geometry" />
        </mxCell>
        <mxCell id="lsXI1EpWRAEbJtsAGLBk-15" value="&lt;table style=&quot;width: 833pt; font-size: 17px;&quot; width=&quot;1110&quot; cellspacing=&quot;0&quot; cellpadding=&quot;0&quot; border=&quot;0&quot;&gt;&lt;tbody&gt;&lt;tr style=&quot;height:15.0pt&quot; height=&quot;20&quot;&gt;&lt;td style=&quot;height: 15pt;&quot; width=&quot;1110&quot; class=&quot;xl65&quot; height=&quot;20&quot; colspan=&quot;2&quot;&gt;&lt;/td&gt;&lt;/tr&gt;&lt;/tbody&gt;&lt;/table&gt;&lt;font style=&quot;font-size: 17px;&quot;&gt;Application Module&lt;/font&gt;" style="rounded=1;whiteSpace=wrap;html=1;align=center;" parent="1" vertex="1">
          <mxGeometry x="1141" y="330" width="190" height="60" as="geometry" />
        </mxCell>
        <mxCell id="lsXI1EpWRAEbJtsAGLBk-16" value="&lt;table style=&quot;border-collapse:&lt;br/&gt; collapse;width:833pt&quot; width=&quot;1110&quot; cellspacing=&quot;0&quot; cellpadding=&quot;0&quot; border=&quot;0&quot;&gt;&lt;tbody&gt;&lt;tr style=&quot;height:15.0pt&quot; height=&quot;20&quot;&gt;&lt;td style=&quot;height:15.0pt;&lt;br/&gt;  width:833pt&quot; width=&quot;1110&quot; class=&quot;xl65&quot; height=&quot;20&quot; colspan=&quot;2&quot;&gt;&lt;/td&gt;&lt;/tr&gt;&lt;/tbody&gt;&lt;/table&gt;LedDrv Module" style="rounded=1;whiteSpace=wrap;html=1;" parent="1" vertex="1">
          <mxGeometry x="911" y="510" width="190" height="60" as="geometry" />
        </mxCell>
        <mxCell id="lsXI1EpWRAEbJtsAGLBk-17" value="&lt;table style=&quot;border-collapse:&lt;br/&gt; collapse;width:833pt&quot; width=&quot;1110&quot; cellspacing=&quot;0&quot; cellpadding=&quot;0&quot; border=&quot;0&quot;&gt;&lt;tbody&gt;&lt;tr style=&quot;height:15.0pt&quot; height=&quot;20&quot;&gt;&lt;td style=&quot;height:15.0pt;&lt;br/&gt;  width:833pt&quot; width=&quot;1110&quot; class=&quot;xl65&quot; height=&quot;20&quot; colspan=&quot;2&quot;&gt;&lt;/td&gt;&lt;/tr&gt;&lt;/tbody&gt;&lt;/table&gt;&lt;span style=&quot;background-color: initial;&quot;&gt;BtnDrv&lt;/span&gt;&lt;span style=&quot;background-color: initial;&quot;&gt;&amp;nbsp;Module&lt;/span&gt;" style="rounded=1;whiteSpace=wrap;html=1;" parent="1" vertex="1">
          <mxGeometry x="1141" y="510" width="190" height="60" as="geometry" />
        </mxCell>
        <mxCell id="lsXI1EpWRAEbJtsAGLBk-18" value="&lt;table style=&quot;border-collapse:&lt;br/&gt; collapse;width:833pt&quot; width=&quot;1110&quot; cellspacing=&quot;0&quot; cellpadding=&quot;0&quot; border=&quot;0&quot;&gt;&lt;tbody&gt;&lt;tr style=&quot;height:15.0pt&quot; height=&quot;20&quot;&gt;&lt;td style=&quot;height:15.0pt;&lt;br/&gt;  width:833pt&quot; width=&quot;1110&quot; class=&quot;xl65&quot; height=&quot;20&quot; colspan=&quot;2&quot;&gt;&lt;/td&gt;&lt;/tr&gt;&lt;/tbody&gt;&lt;/table&gt;&lt;span style=&quot;background-color: initial;&quot;&gt;CySecDrv Module&lt;/span&gt;" style="rounded=1;whiteSpace=wrap;html=1;" parent="1" vertex="1">
          <mxGeometry x="1371" y="510" width="190" height="60" as="geometry" />
        </mxCell>
        <mxCell id="lsXI1EpWRAEbJtsAGLBk-19" value="" style="endArrow=none;html=1;rounded=0;entryX=0.5;entryY=1;entryDx=0;entryDy=0;exitX=0.5;exitY=0;exitDx=0;exitDy=0;" parent="1" source="lsXI1EpWRAEbJtsAGLBk-17" target="lsXI1EpWRAEbJtsAGLBk-15" edge="1">
          <mxGeometry width="50" height="50" relative="1" as="geometry">
            <mxPoint x="1201" y="480" as="sourcePoint" />
            <mxPoint x="1251" y="430" as="targetPoint" />
          </mxGeometry>
        </mxCell>
        <mxCell id="lsXI1EpWRAEbJtsAGLBk-20" value="" style="endArrow=none;html=1;rounded=0;entryX=0.5;entryY=1;entryDx=0;entryDy=0;exitX=0.5;exitY=0;exitDx=0;exitDy=0;" parent="1" source="lsXI1EpWRAEbJtsAGLBk-16" target="lsXI1EpWRAEbJtsAGLBk-15" edge="1">
          <mxGeometry width="50" height="50" relative="1" as="geometry">
            <mxPoint x="1201" y="480" as="sourcePoint" />
            <mxPoint x="1251" y="430" as="targetPoint" />
          </mxGeometry>
        </mxCell>
        <mxCell id="lsXI1EpWRAEbJtsAGLBk-21" value="" style="endArrow=none;html=1;rounded=0;exitX=0.5;exitY=0;exitDx=0;exitDy=0;" parent="1" source="lsXI1EpWRAEbJtsAGLBk-18" edge="1">
          <mxGeometry width="50" height="50" relative="1" as="geometry">
            <mxPoint x="1211" y="490" as="sourcePoint" />
            <mxPoint x="1231" y="390" as="targetPoint" />
          </mxGeometry>
        </mxCell>
      </root>
    </mxGraphModel>
  </diagram>
  <diagram id="Cd0Wstj4xarch8bGEmz6" name="Page-2">
    <mxGraphModel dx="1816" dy="520" grid="1" gridSize="10" guides="1" tooltips="1" connect="1" arrows="1" fold="1" page="1" pageScale="1" pageWidth="827" pageHeight="1169" math="0" shadow="0">
      <root>
        <mxCell id="0" />
        <mxCell id="1" parent="0" />
        <mxCell id="Q6yO0PGPXW8xc3rmzWbu-1" value="&lt;table style=&quot;width: 833pt; font-size: 17px;&quot; width=&quot;1110&quot; cellspacing=&quot;0&quot; cellpadding=&quot;0&quot; border=&quot;0&quot;&gt;&lt;tbody&gt;&lt;tr style=&quot;height:15.0pt&quot; height=&quot;20&quot;&gt;&lt;td style=&quot;height: 15pt;&quot; width=&quot;1110&quot; class=&quot;xl65&quot; height=&quot;20&quot; colspan=&quot;2&quot;&gt;&lt;/td&gt;&lt;/tr&gt;&lt;/tbody&gt;&lt;/table&gt;&lt;font style=&quot;font-size: 17px;&quot;&gt;Application Module&lt;/font&gt;" style="rounded=1;whiteSpace=wrap;html=1;align=center;" vertex="1" parent="1">
          <mxGeometry x="110" y="160" width="190" height="60" as="geometry" />
        </mxCell>
        <mxCell id="Q6yO0PGPXW8xc3rmzWbu-2" value="&lt;table style=&quot;border-collapse:&lt;br/&gt; collapse;width:833pt&quot; width=&quot;1110&quot; cellspacing=&quot;0&quot; cellpadding=&quot;0&quot; border=&quot;0&quot;&gt;&lt;tbody&gt;&lt;tr style=&quot;height:15.0pt&quot; height=&quot;20&quot;&gt;&lt;td style=&quot;height:15.0pt;&lt;br/&gt;  width:833pt&quot; width=&quot;1110&quot; class=&quot;xl65&quot; height=&quot;20&quot; colspan=&quot;2&quot;&gt;&lt;/td&gt;&lt;/tr&gt;&lt;/tbody&gt;&lt;/table&gt;LedDrv Module" style="rounded=1;whiteSpace=wrap;html=1;" vertex="1" parent="1">
          <mxGeometry x="110" y="270" width="190" height="60" as="geometry" />
        </mxCell>
        <mxCell id="Q6yO0PGPXW8xc3rmzWbu-5" value="&lt;br&gt;uC (HW Layer)" style="rounded=1;whiteSpace=wrap;html=1;" vertex="1" parent="1">
          <mxGeometry x="110" y="385" width="190" height="60" as="geometry" />
        </mxCell>
        <mxCell id="Q6yO0PGPXW8xc3rmzWbu-7" value="" style="endArrow=none;html=1;rounded=0;entryX=0.5;entryY=1;entryDx=0;entryDy=0;" edge="1" parent="1" source="Q6yO0PGPXW8xc3rmzWbu-5" target="Q6yO0PGPXW8xc3rmzWbu-2">
          <mxGeometry width="50" height="50" relative="1" as="geometry">
            <mxPoint y="415" as="sourcePoint" />
            <mxPoint x="50" y="365" as="targetPoint" />
          </mxGeometry>
        </mxCell>
        <mxCell id="Q6yO0PGPXW8xc3rmzWbu-9" value="" style="endArrow=none;html=1;rounded=0;entryX=0.5;entryY=1;entryDx=0;entryDy=0;exitX=0.5;exitY=0;exitDx=0;exitDy=0;" edge="1" parent="1" source="Q6yO0PGPXW8xc3rmzWbu-2" target="Q6yO0PGPXW8xc3rmzWbu-1">
          <mxGeometry width="50" height="50" relative="1" as="geometry">
            <mxPoint x="400" y="240" as="sourcePoint" />
            <mxPoint x="450" y="190" as="targetPoint" />
          </mxGeometry>
        </mxCell>
      </root>
    </mxGraphModel>
  </diagram>
</mxfile>
